{"title":"Patriot Games 1992 HDDVD Rip H264 AAC - IceBane","uid":5287881,"size":2466617269,"categoryP":"video","categoryS":"movies","magnet":"?xt=urn:btih:267ff0a4de2a4cfd1258c4152a092fd30b49ed4f&amp;dn=Patriot+Games+1992+HDDVD+Rip+H264+AAC+-+IceBane&amp;tr=udp%3A%2F%2Ftracker.openbittorrent.com%3A80&amp;tr=udp%3A%2F%2Fopen.demonii.com%3A1337&amp;tr=udp%3A%2F%2Ftracker.coppersurfer.tk%3A6969&amp;tr=udp%3A%2F%2Fexodus.desync.com%3A6969","seeders":0,"leechers":1,"uploader":"IceBane","files":-1,"time":1263784271,"description":"General:\n\nTitle: Patriot Games  \nDirector: Phillip Noyce\nRelease Date: 5 June 1992 (USA)\nLanguage: English\nRuntime: 117 min   \nGenre: Action | Crime | Thriller\nColor: Color\nIMDb Rating: 6.9/10   27,982 votes    \nLink: http://www.imdb.com/title/tt0105112/\nStudio: Paramount\nLanguage: English\nSubtitles: English, English SDH, French, Spanish\nSample Video: yes\n\nPlot:\n\nHis days as an intelligence agent behind him, former CIA analyst Jack Ryan has traveled to London to vacation with his wife and child. Meeting his family outside Buckingham Palace, Ryan is caught in the middle of a terrorist attack on Lord Holmes, a member of the Royal Family. Ryan helps to thwart Holmes' assailants and becomes a local hero. But Ryan's courageous act marks him as a target in the sights of the terrorist whose brother he killed. Now Ryan must return to action for the most vital assignment of his life: to save his family.\n\n\n\nVideo:\n\n\nFormat: H.264/MPEG-4 AVC\nFormat/Info: Advanced Video Codec\nFormat profile: &lt;a class=&quot;__cf_email__&quot; href=&quot;/cdn-cgi/l/email-protection&quot; data-cfemail=&quot;80c8e9e7e8c0ccb4aeb0&quot;&gt;[email&amp;#160;protected]&lt;/a&gt;&lt;script cf-hash='f9e31' type=&quot;text/javascript&quot;&gt;\n/* &lt;![CDATA[ */!function(){try{var t=&quot;currentScript&quot;in document?document.currentScript:function(){for(var t=document.getElementsByTagName(&quot;script&quot;),e=t.length;e--;)if(t[e].getAttribute(&quot;cf-hash&quot;))return t[e]}();if(t&amp;&amp;t.previousSibling){var e,r,n,i,c=t.previousSibling,a=c.getAttribute(&quot;data-cfemail&quot;);if(a){for(e=&quot;&quot;,r=parseInt(a.substr(0,2),16),n=2;a.length-n;n+=2)i=parseInt(a.substr(n,2),16)^r,e+=String.fromCharCode(i);e=document.createTextNode(e),c.parentNode.replaceChild(e,c)}}}catch(u){}}();/* ]]&gt; */&lt;/script&gt;\nFormat settings, CABAC: Yes\nFormat settings, ReFrames: 5 frames\nCodec ID: avc1\nCodec ID/Info: Advanced Video Coding\nDuration: 1h 56mn\nBit rate mode: Variable\nBit rate: 2170 Kbps\nMaximum bit rate: 17.2 mbps \nScreen Resolution: 1376 x 768\nDisplay aspect ratio: 16:9\nFrame rate mode: Constant\nFrame rate: 23.976 fps\nResolution: 24 bits\nColorimetry: 4:2:0\nScan type: Progressive\nBits/(Pixel*Frame): 0.086\nStream size: 1.77 GiB (78%)\n\n\nAudio:\n\n\nFormat: mp4a - MPEG-4 AAC LC\nFormat/Info: Advanced Audio Codec\nFormat version: Version 4\nFormat profile: LC\nFormat settings, SBR: No\nCodec ID: 40\nDuration: 1h 56mn\nBit rate mode: Variable\nBit rate: 609 Kbps\nMaximum bit rate: 726 Kbps\nChannel(s): 6 channels\nChannel positions: Front: L C R, Rear: L R, LFE\nSampling rate: 48.0 KHz\nResolution: 16 bits\nStream size: 509 MiB (22%)\n\n\n\n\nHope you all Enjoy\n\nPlease Let me know if this works on a PS3.\n\nThanks and keep seeding.\n\nIceBane\n","torrent":{"xt":"urn:btih:267ff0a4de2a4cfd1258c4152a092fd30b49ed4f","amp;dn":"Patriot+Games+1992+HDDVD+Rip+H264+AAC+-+IceBane","amp;tr":["udp%3A%2F%2Ftracker.openbittorrent.com%3A80","udp%3A%2F%2Fopen.demonii.com%3A1337","udp%3A%2F%2Ftracker.coppersurfer.tk%3A6969","udp%3A%2F%2Fexodus.desync.com%3A6969"],"infoHash":"267ff0a4de2a4cfd1258c4152a092fd30b49ed4f","infoHashBuffer":{"type":"Buffer","data":[38,127,240,164,222,42,76,253,18,88,196,21,42,9,47,211,11,73,237,79]},"announce":[],"urlList":[]}}